<svg width="104" height="34" viewBox="0 0 104 34" fill="none" xmlns="http://www.w3.org/2000/svg">
<path d="M103.75 29.4151V29.4578C103.727 31.8321 101.796 33.7504 99.4167 33.7504H4.86803C2.47444 33.7506 0.533203 31.8092 0.533203 29.4151V4.65807C0.533203 2.26445 2.47441 0.323242 4.86803 0.323242H99.4165C101.81 0.323242 103.75 2.26439 103.75 4.65807V29.4151Z" stroke="white" stroke-width="0.5"/>
<path d="M23.547 16.2142C23.5248 13.7497 25.5648 12.5508 25.6581 12.4949C24.5028 10.8104 22.712 10.5803 22.0827 10.5619C20.5786 10.4036 19.1197 11.4619 18.3535 11.4619C17.572 11.4619 16.3922 10.5772 15.1206 10.6032C13.4842 10.6284 11.9534 11.5758 11.1138 13.047C9.38116 16.0467 10.6734 20.4549 12.3335 22.8796C13.1639 24.067 14.1342 25.3929 15.4043 25.3463C16.6468 25.2951 17.1109 24.5541 18.6104 24.5541C20.0961 24.5541 20.532 25.3463 21.8273 25.3165C23.1608 25.2951 24.0004 24.1236 24.8017 22.9254C25.7614 21.5644 26.1467 20.224 26.162 20.1551C26.1307 20.1444 23.5722 19.168 23.547 16.2142Z" fill="white"/>
<path d="M21.0999 8.96647C21.7682 8.13072 22.2254 6.99369 22.0985 5.83984C21.1312 5.88266 19.9216 6.50891 19.225 7.32631C18.6087 8.04661 18.0581 9.22722 18.2004 10.3375C19.2869 10.4185 20.4025 9.78923 21.0999 8.96647Z" fill="white"/>
<path d="M41.5302 25.1749H39.7937L38.8425 22.1859H35.5362L34.6301 25.1749H32.9395L36.2152 14.999H38.2384L41.5302 25.1749ZM38.5558 20.9319L37.6955 18.2748C37.6045 18.0033 37.434 17.3641 37.1825 16.3578H37.1519C37.0517 16.7906 36.8904 17.4298 36.6686 18.2748L35.8237 20.9319H38.5558Z" fill="white"/>
<path d="M49.9547 21.4167C49.9547 22.6646 49.6175 23.651 48.9431 24.3751C48.3391 25.0197 47.5889 25.3416 46.6935 25.3416C45.727 25.3416 45.0327 24.9944 44.6099 24.3001H44.5793V28.1654H42.9491V20.2536C42.9491 19.4691 42.9284 18.664 42.8887 17.8381H44.3224L44.4134 19.0012H44.444C44.9876 18.1249 45.8127 17.6875 46.9199 17.6875C47.7855 17.6875 48.508 18.0293 49.0861 18.7137C49.6657 19.3988 49.9547 20.2995 49.9547 21.4167ZM48.2939 21.4763C48.2939 20.7621 48.1334 20.1734 47.8107 19.71C47.4582 19.2267 46.9849 18.9851 46.3915 18.9851C45.9893 18.9851 45.6238 19.1197 45.2973 19.385C44.97 19.6526 44.7559 20.0021 44.6558 20.4349C44.6053 20.6367 44.5801 20.8019 44.5801 20.9319V22.1553C44.5801 22.689 44.7437 23.1394 45.071 23.5072C45.3982 23.875 45.8234 24.0585 46.3464 24.0585C46.9604 24.0585 47.4383 23.8215 47.7801 23.3489C48.1227 22.8756 48.2939 22.2517 48.2939 21.4763Z" fill="white"/>
<path d="M58.3934 21.4167C58.3934 22.6646 58.0562 23.651 57.381 24.3751C56.7777 25.0197 56.0276 25.3416 55.1322 25.3416C54.1657 25.3416 53.4714 24.9944 53.0493 24.3001H53.0188V28.1654H51.3885V20.2536C51.3885 19.4691 51.3679 18.664 51.3281 17.8381H52.7618L52.8528 19.0012H52.8834C53.4263 18.1249 54.2514 17.6875 55.3593 17.6875C56.2241 17.6875 56.9467 18.0293 57.5263 18.7137C58.1036 19.3988 58.3934 20.2995 58.3934 21.4167ZM56.7326 21.4763C56.7326 20.7621 56.5713 20.1734 56.2486 19.71C55.8961 19.2267 55.4243 18.9851 54.8302 18.9851C54.4272 18.9851 54.0625 19.1197 53.7352 19.385C53.408 19.6526 53.1946 20.0021 53.0945 20.4349C53.0447 20.6367 53.0188 20.8019 53.0188 20.9319V22.1553C53.0188 22.689 53.1824 23.1394 53.5081 23.5072C53.8354 23.8742 54.2605 24.0585 54.7851 24.0585C55.3991 24.0585 55.877 23.8215 56.2188 23.3489C56.5613 22.8756 56.7326 22.2517 56.7326 21.4763Z" fill="white"/>
<path d="M67.8305 22.3209C67.8305 23.1865 67.53 23.8908 66.9267 24.4344C66.2637 25.0285 65.3408 25.3252 64.1548 25.3252C63.0599 25.3252 62.1821 25.1142 61.5176 24.6913L61.8953 23.3326C62.611 23.7654 63.3963 23.9825 64.2519 23.9825C64.866 23.9825 65.3439 23.8433 65.6872 23.5665C66.029 23.2897 66.1995 22.9181 66.1995 22.4548C66.1995 22.0418 66.0588 21.6939 65.7766 21.4118C65.496 21.1296 65.0273 20.8674 64.3728 20.625C62.5911 19.9605 61.7011 18.9871 61.7011 17.7071C61.7011 16.8706 62.0131 16.1847 62.6378 15.651C63.2602 15.1165 64.0906 14.8496 65.129 14.8496C66.055 14.8496 66.8242 15.0109 67.4382 15.3329L67.0307 16.6618C66.4572 16.3498 65.8088 16.1939 65.0831 16.1939C64.5096 16.1939 64.0616 16.3353 63.7404 16.6167C63.469 16.8683 63.3328 17.1749 63.3328 17.5381C63.3328 17.9403 63.4881 18.2729 63.8 18.5344C64.0715 18.7761 64.5647 19.0376 65.2804 19.3197C66.1559 19.6722 66.799 20.0844 67.2126 20.5569C67.6248 21.0279 67.8305 21.6175 67.8305 22.3209Z" fill="white"/>
<path d="M73.2186 19.0605H71.4217V22.623C71.4217 23.5291 71.7382 23.9817 72.3729 23.9817C72.6642 23.9817 72.9058 23.9565 73.097 23.906L73.1421 25.144C72.821 25.264 72.3981 25.3244 71.8743 25.3244C71.2305 25.3244 70.7274 25.1279 70.3642 24.7357C70.0025 24.3426 69.8205 23.6835 69.8205 22.7575V19.059H68.75V17.8355H69.8205V16.492L71.4217 16.0088V17.8355H73.2186V19.0605Z" fill="white"/>
<path d="M81.3256 21.4457C81.3256 22.5736 81.0029 23.4996 80.3591 24.2237C79.6839 24.9692 78.7877 25.3408 77.6706 25.3408C76.5939 25.3408 75.7368 24.9837 75.0975 24.2696C74.4583 23.5554 74.1387 22.6539 74.1387 21.5673C74.1387 20.4303 74.4675 19.4989 75.1274 18.7748C75.7857 18.0499 76.6742 17.6875 77.7914 17.6875C78.868 17.6875 79.7343 18.0446 80.3881 18.7595C81.0136 19.4531 81.3256 20.3485 81.3256 21.4457ZM79.6342 21.4985C79.6342 20.8218 79.4896 20.2414 79.1968 19.7574C78.855 19.1717 78.3664 18.8796 77.7333 18.8796C77.078 18.8796 76.5802 19.1724 76.2384 19.7574C75.9455 20.2422 75.801 20.8317 75.801 21.5291C75.801 22.2058 75.9455 22.7861 76.2384 23.2694C76.5909 23.8551 77.0833 24.1472 77.7187 24.1472C78.3412 24.1472 78.8298 23.849 79.1823 23.2541C79.4828 22.7609 79.6342 22.1744 79.6342 21.4985Z" fill="white"/>
<path d="M86.6269 19.2718C86.4655 19.242 86.2935 19.2267 86.113 19.2267C85.5395 19.2267 85.096 19.4431 84.7841 19.8767C84.5126 20.259 84.3765 20.7423 84.3765 21.3257V25.1757H82.747L82.7623 20.1489C82.7623 19.3032 82.7417 18.5332 82.7012 17.8389H84.1211L84.1808 19.2428H84.2259C84.3979 18.7603 84.6694 18.3719 85.041 18.0805C85.4042 17.8183 85.7964 17.6875 86.2193 17.6875C86.3699 17.6875 86.506 17.6982 86.6269 17.7173V19.2718Z" fill="white"/>
<path d="M93.9174 21.1581C93.9174 21.4502 93.8983 21.6964 93.8577 21.8975H88.9671C88.9862 22.6224 89.2225 23.1768 89.6767 23.5591C90.0888 23.9009 90.6218 24.0722 91.2763 24.0722C92.0004 24.0722 92.6611 23.9567 93.2552 23.725L93.5106 24.8567C92.8163 25.1595 91.9966 25.3101 91.0507 25.3101C89.9129 25.3101 89.0198 24.9752 88.3699 24.3062C87.7215 23.6371 87.3965 22.7386 87.3965 21.6116C87.3965 20.5051 87.6985 19.5837 88.3034 18.8489C88.9365 18.0644 89.7921 17.6721 90.8687 17.6721C91.9262 17.6721 92.7268 18.0644 93.2705 18.8489C93.701 19.4721 93.9174 20.2429 93.9174 21.1581ZM92.3628 20.7353C92.3736 20.252 92.2673 19.8345 92.0463 19.482C91.7641 19.0286 91.3306 18.8023 90.7472 18.8023C90.2142 18.8023 89.7806 19.0232 89.4496 19.4667C89.1781 19.8192 89.0168 20.2421 88.9671 20.7345L92.3628 20.7353Z" fill="white"/>
<path d="M38.0174 8.7379C38.0174 9.63789 37.7475 10.3154 37.2084 10.7703C36.7091 11.1901 35.9995 11.4004 35.0804 11.4004C34.6247 11.4004 34.2347 11.3805 33.9082 11.3408V6.42333C34.3341 6.35451 34.7929 6.31934 35.2884 6.31934C36.1639 6.31934 36.8238 6.50973 37.2688 6.89052C37.7674 7.32102 38.0174 7.93656 38.0174 8.7379ZM37.1725 8.76008C37.1725 8.17666 37.018 7.72934 36.7091 7.41736C36.4002 7.10615 35.949 6.95017 35.3549 6.95017C35.1026 6.95017 34.8877 6.96699 34.7096 7.00216V10.7405C34.8082 10.7558 34.9886 10.7627 35.2509 10.7627C35.8642 10.7627 36.3375 10.5922 36.6709 10.2511C37.0042 9.9101 37.1725 9.41308 37.1725 8.76008Z" fill="white"/>
<path d="M42.4991 9.52358C42.4991 10.078 42.3408 10.5321 42.0243 10.8885C41.6924 11.2547 41.2527 11.4375 40.7037 11.4375C40.1746 11.4375 39.7533 11.2624 39.439 10.9106C39.1255 10.5597 38.9688 10.1169 38.9688 9.58323C38.9688 9.02504 39.1301 8.56702 39.4543 8.21146C39.7785 7.8559 40.2144 7.67773 40.7634 7.67773C41.2925 7.67773 41.7176 7.85284 42.0396 8.20381C42.3454 8.54484 42.4991 8.98528 42.4991 9.52358ZM41.6679 9.54958C41.6679 9.21696 41.5961 8.93175 41.4531 8.69395C41.2849 8.40644 41.0455 8.26269 40.7343 8.26269C40.4124 8.26269 40.1677 8.40644 39.9995 8.69395C39.8557 8.93175 39.7846 9.22155 39.7846 9.56411C39.7846 9.89673 39.8565 10.1819 39.9995 10.4197C40.1731 10.7073 40.4147 10.851 40.7267 10.851C41.0325 10.851 41.2726 10.705 41.4454 10.4121C41.5938 10.1697 41.6679 9.8822 41.6679 9.54958Z" fill="white"/>
<path d="M48.5038 7.75098L47.3759 11.3555H46.6419L46.1747 9.79028C46.0561 9.39955 45.9598 9.01111 45.8849 8.62573H45.8703C45.8007 9.02181 45.7044 9.40949 45.5805 9.79028L45.0843 11.3555H44.3418L43.2812 7.75098H44.1048L44.5123 9.46454C44.611 9.8698 44.692 10.2559 44.757 10.6214H44.7715C44.8312 10.3202 44.9298 9.93633 45.069 9.47219L45.5805 7.75174H46.2335L46.7237 9.43549C46.8422 9.8461 46.9385 10.2414 47.0127 10.6222H47.0349C47.0892 10.2514 47.171 9.85604 47.2796 9.43549L47.7169 7.75174H48.5038V7.75098Z" fill="white"/>
<path d="M52.6595 11.3563H51.8582V9.29172C51.8582 8.65553 51.6165 8.33744 51.1317 8.33744C50.8939 8.33744 50.702 8.42461 50.5529 8.59972C50.4053 8.77482 50.3304 8.98127 50.3304 9.21755V11.3555H49.5291V8.7817C49.5291 8.46514 49.5191 8.12181 49.5 7.7502H50.2042L50.2417 8.31374H50.2639C50.3572 8.13864 50.4963 7.99412 50.6791 7.87866C50.8962 7.74408 51.1394 7.67603 51.4055 7.67603C51.7419 7.67603 52.0218 7.7846 52.2443 8.00253C52.5211 8.26939 52.6595 8.66777 52.6595 9.1969V11.3563Z" fill="white"/>
<path d="M54.8689 11.3561H54.0684V6.09766H54.8689V11.3561Z" fill="white"/>
<path d="M59.587 9.52358C59.587 10.078 59.4287 10.5321 59.1122 10.8885C58.7803 11.2547 58.3399 11.4375 57.7916 11.4375C57.2617 11.4375 56.8404 11.2624 56.5269 10.9106C56.2134 10.5597 56.0566 10.1169 56.0566 9.58323C56.0566 9.02504 56.218 8.56702 56.5422 8.21146C56.8664 7.8559 57.3022 7.67773 57.8505 7.67773C58.3804 7.67773 58.8048 7.85284 59.1274 8.20381C59.4333 8.54484 59.587 8.98528 59.587 9.52358ZM58.7551 9.54958C58.7551 9.21696 58.6832 8.93175 58.5402 8.69395C58.3727 8.40644 58.1326 8.26269 57.8222 8.26269C57.4995 8.26269 57.2548 8.40644 57.0874 8.69395C56.9436 8.93175 56.8725 9.22155 56.8725 9.56411C56.8725 9.89673 56.9444 10.1819 57.0874 10.4197C57.261 10.7073 57.5026 10.851 57.8146 10.851C58.1204 10.851 58.3597 10.705 58.5326 10.4121C58.6817 10.1697 58.7551 9.8822 58.7551 9.54958Z" fill="white"/>
<path d="M63.465 11.3557H62.7455L62.6859 10.9405H62.6637C62.4175 11.2716 62.0665 11.4375 61.6108 11.4375C61.2705 11.4375 60.9952 11.3281 60.788 11.111C60.5999 10.9137 60.5059 10.6683 60.5059 10.3769C60.5059 9.93649 60.6894 9.60081 61.0587 9.36836C61.4273 9.13591 61.9457 9.02198 62.6132 9.02733V8.96004C62.6132 8.4852 62.3639 8.24816 61.8646 8.24816C61.5091 8.24816 61.1956 8.33762 60.9249 8.51502L60.762 7.98894C61.0969 7.78173 61.5106 7.67773 61.9984 7.67773C62.9405 7.67773 63.413 8.17475 63.413 9.16879V10.4962C63.413 10.8564 63.4306 11.1431 63.465 11.3557ZM62.6331 10.1169V9.56105C61.7492 9.54576 61.3072 9.78815 61.3072 10.2875C61.3072 10.4756 61.3577 10.6163 61.4609 10.7103C61.5641 10.8044 61.6956 10.851 61.8524 10.851C62.0283 10.851 62.1927 10.7952 62.3425 10.6843C62.4932 10.5727 62.5857 10.4312 62.6201 10.2576C62.6285 10.2186 62.6331 10.1712 62.6331 10.1169Z" fill="white"/>
<path d="M68.019 11.3561H67.3079L67.2704 10.7773H67.2483C67.0212 11.2177 66.6342 11.4379 66.0906 11.4379C65.6563 11.4379 65.2946 11.2674 65.0079 10.9264C64.7211 10.5854 64.5781 10.1426 64.5781 9.59896C64.5781 9.01554 64.7333 8.54299 65.0453 8.18207C65.3474 7.84563 65.7174 7.67741 66.1579 7.67741C66.6419 7.67741 66.9806 7.84028 67.1733 8.16678H67.1886V6.09766H67.9907V10.385C67.9907 10.736 67.9999 11.0594 68.019 11.3561ZM67.1886 9.836V9.23499C67.1886 9.131 67.181 9.04689 67.1664 8.98266C67.1213 8.78997 67.0242 8.62786 66.8766 8.49711C66.7275 8.36635 66.5478 8.3006 66.3406 8.3006C66.0416 8.3006 65.8077 8.41911 65.6356 8.65692C65.4651 8.89472 65.3787 9.19829 65.3787 9.56914C65.3787 9.92546 65.4605 10.2145 65.6249 10.437C65.7985 10.674 66.0325 10.7926 66.3253 10.7926C66.5884 10.7926 66.7986 10.6939 66.9585 10.4959C67.1129 10.3131 67.1886 10.0929 67.1886 9.836Z" fill="white"/>
<path d="M74.8722 9.52358C74.8722 10.078 74.7139 10.5321 74.3973 10.8885C74.0655 11.2547 73.6266 11.4375 73.0768 11.4375C72.5484 11.4375 72.1271 11.2624 71.8121 10.9106C71.4986 10.5597 71.3418 10.1169 71.3418 9.58323C71.3418 9.02504 71.5031 8.56702 71.8273 8.21146C72.1516 7.8559 72.5874 7.67773 73.1372 7.67773C73.6655 7.67773 74.0915 7.85284 74.4126 8.20381C74.7185 8.54484 74.8722 8.98528 74.8722 9.52358ZM74.0418 9.54958C74.0418 9.21696 73.9699 8.93175 73.8269 8.69395C73.6579 8.40644 73.4193 8.26269 73.1074 8.26269C72.7862 8.26269 72.5415 8.40644 72.3725 8.69395C72.2288 8.93175 72.1577 9.22155 72.1577 9.56411C72.1577 9.89673 72.2295 10.1819 72.3725 10.4197C72.5461 10.7073 72.7877 10.851 73.0997 10.851C73.4056 10.851 73.6464 10.705 73.8192 10.4121C73.9668 10.1697 74.0418 9.8822 74.0418 9.54958Z" fill="white"/>
<path d="M79.1802 11.3563H78.3796V9.29172C78.3796 8.65553 78.138 8.33744 77.6525 8.33744C77.4147 8.33744 77.2227 8.42461 77.0744 8.59972C76.9261 8.77482 76.8519 8.98127 76.8519 9.21755V11.3555H76.0498V8.7817C76.0498 8.46514 76.0406 8.12181 76.0215 7.7502H76.725L76.7624 8.31374H76.7846C76.8787 8.13864 77.0178 7.99412 77.1998 7.87866C77.4177 7.74408 77.6601 7.67603 77.927 7.67603C78.2627 7.67603 78.5425 7.7846 78.765 8.00253C79.0426 8.26939 79.1802 8.66777 79.1802 9.1969V11.3563Z" fill="white"/>
<path d="M84.5722 8.35133H83.6898V10.1024C83.6898 10.5474 83.8466 10.7699 84.157 10.7699C84.3008 10.7699 84.4201 10.7577 84.5141 10.7324L84.5348 11.3403C84.3765 11.4 84.1685 11.4298 83.9124 11.4298C83.5958 11.4298 83.3496 11.3334 83.1714 11.1408C82.9925 10.9481 82.9038 10.6239 82.9038 10.1689V8.35133H82.377V7.75109H82.9038V7.09043L83.6891 6.85339V7.75032H84.5715L84.5722 8.35133Z" fill="white"/>
<path d="M88.816 11.3561H88.0139V9.30687C88.0139 8.66074 87.7723 8.3373 87.2882 8.3373C86.9166 8.3373 86.6628 8.52464 86.5236 8.89931C86.4999 8.97807 86.4861 9.07441 86.4861 9.18758V11.3553H85.6855V6.09766H86.4861V8.27001H86.5014C86.7538 7.87469 87.1154 7.67741 87.5842 7.67741C87.916 7.67741 88.1905 7.78599 88.4084 8.00391C88.6799 8.27536 88.816 8.67909 88.816 9.21282V11.3561Z" fill="white"/>
<path d="M93.1929 9.38367C93.1929 9.52742 93.1822 9.64823 93.1631 9.74687H90.7598C90.7705 10.1032 90.8852 10.3746 91.1077 10.5627C91.3111 10.731 91.5734 10.8151 91.8945 10.8151C92.2501 10.8151 92.5743 10.7585 92.8664 10.6446L92.9918 11.2012C92.65 11.3496 92.2478 11.4237 91.7821 11.4237C91.2239 11.4237 90.7843 11.2593 90.4662 10.9305C90.1466 10.6017 89.9883 10.1605 89.9883 9.60694C89.9883 9.06328 90.1359 8.61061 90.4333 8.2497C90.7437 7.86432 91.1635 7.67163 91.6934 7.67163C92.2119 7.67163 92.6057 7.86432 92.8718 8.2497C93.0866 8.55556 93.1929 8.93406 93.1929 9.38367ZM92.4283 9.17645C92.4344 8.93865 92.3816 8.73372 92.273 8.56091C92.1339 8.3384 91.9221 8.22676 91.6353 8.22676C91.3738 8.22676 91.1605 8.33534 90.9976 8.55327C90.8646 8.72684 90.7858 8.93406 90.7598 9.17645H92.4283Z" fill="white"/>
</svg>
